<?xml version="1.0" encoding="utf-8"?>
<svg version="1.1" viewBox="0 0 2048 452" width="702" height="155" xmlns="http://www.w3.org/2000/svg" xmlns:bx="https://boxy-svg.com" preserveAspectRatio="none"><defs><bx:export><bx:file format="svg" path="Sans titre.svg"/></bx:export></defs><path transform="translate(884,154)" d="m0 0h12l16 3 13 5 9 6 9 9 5 1 17-12 14-7 16-3h12l16 3 12 5 11 8 10 10 7 11 5 14 2 14v82l-2 31-2 8-5 5h-16l-7-3-4-6-1-5-1-68-1-39-2-11-5-8-7-6-9-4-4-1h-21l-8 4-6 7-5 12-3 13-1 14v45l1 21v25l-3 6-4 2h-15l-15-2-5-3-2-5-1-13v-82l-1-19-4-11-4-5-9-6-11-4-4-1h-11l-9 4-8 7-5 9-6 14-2 9-1 9-1 67-1 24-2 6-8 3h-23l-6-5-2-6v-94l-1-28v-53l1-2 7-1h25l3 2 1 4v20l8-7 10-9 14-8 12-4z" fill="#020F31"/><path transform="translate(46,84)" d="m0 0 67 1 31 2 18 3 17 5 16 8 11 7 10 8 12 12 12 17 8 16 4 11 3 15 1 8v28l-4 23-6 18-8 16-8 12-11 12-10 9-14 10-16 8-15 5-25 5-24 2h-62l-9-3-5-6-1-4-1-59-1-101v-65l2-15 3-6zm29 39-1 106v77h42l26-3 17-5 20-9 12-9 8-9 6-10 6-14 4-16 1-7v-17l-3-19-4-15-4-10-10-13-12-10-14-8-14-5-10-2-26-2z" fill="#020F30"/><path transform="translate(1180,83)" d="m0 0h26l16 3 20 7 17 9 11 8 5 5-1 5-12 14-9 12-4-1-15-10-16-8-13-4-7-1h-17l-12 2-10 4-8 6-6 9-2 8v9l3 9 4 6 2 4 16 8 26 8 25 7 19 7 14 7 12 9 8 9 5 8 4 13 2 12v10l-3 16-8 16-8 11-10 10-14 8-24 8-13 2h-19l-18-3-21-6-18-8-13-7-14-11-7-7 1-5 8-10 11-11 6-5 5 2 11 10 17 10 20 8 12 3h22l16-5 8-6 7-10 3-9v-9l-4-11-6-7-10-6-23-7-30-8-24-8-16-8-8-6-7-8-7-14-4-13-1-5v-14l3-16 5-13 7-12 8-8 11-7 19-8 16-5z" fill="#020E30"/><path transform="translate(1933,156)" d="m0 0h21l16 3 15 6 13 8 10 9 9 10 8 14 4 11 3 16 1 11v18l-2 5-1 1-135 1 4 11 6 8 13 10 12 6 8 2h25l14-3 13-5 8-6 2-5 4 5 7 8 15 15v2l-19 12-12 7-15 6-14 4h-23l-17-4-13-5-11-6-13-10-16-16-9-13-7-16-4-15v-21l3-16 6-16 8-14 8-10 5-5 7-6 14-8 14-6zm8 35-13 2-12 5-11 10-7 11-4 11v5l26 1 48 1h23v-11l-4-11-6-9-9-7-10-5-6-2-7-1z" fill="#020E30"/><path transform="translate(1380,155)" d="m0 0h19l17 4 14 6 14 10 14 14 7 10 7 14 4 14 2 12 1 27-2 1-43 1-91 1-3 1 2 7 9 12 7 7 11 7 11 4 5 1h22l15-4 16-8 3-3 1-5 3 3 7 8 8 8 10 8 4 3-1 3-29 14-20 8-17 4h-20l-15-3-17-6-14-8-10-8-11-11-7-10-6-10-4-11-3-16v-28l3-16 5-14 9-16 11-12 7-6 12-7 18-7zm2 36-12 3-12 6-8 7-7 10-4 10-1 7 1 1 7 1 90 1 1-3-3-13-7-13-6-7-9-6-12-4z" fill="#020F30"/><path transform="translate(472,156)" d="m0 0h11l16 2 16 5 10 5 13 10 12 12 8 11 5 11 4 15 1 7 1 26-2 5-48 2-35 1h-51l6 12 8 11 11 9 8 4 17 4h17l16-4 14-7 6-7h3l7 9 8 7 10 7-1 4-16 10-16 9-17 6-15 4-16 1-14-2-18-6-13-7-12-10-7-8-9-12-8-14-6-16-2-11v-21l3-20 5-15 7-13 7-9 4-5 15-10 15-7 14-4zm-3 36-12 4-9 6-7 7-6 10-3 10v6l3 1 94 1v-7l-4-12-5-9-7-8-12-6-11-3z" fill="#020E30"/><path transform="translate(661,157)" d="m0 0h27l12 3 9 5 12 11 7 7 2 1v-26h35l1 1 1 51 2 66v31l-1 30-1 7-3 2h-31l-3-3-3-15-2-15-4 2-11 13-5 5-8 5-15 6-12 3-8 1h-11l-16-4-12-6-13-10-7-7-10-14-5-11-3-13v-18l3-12 5-9 8-7 10-6h2v11l4 25 8 16 8 10 10 8 10 4 5 1h21l14-5 15-9 10-8 6-9 3-15v-22l-4-12-7-11-12-12-8-5-14-4h-23l-15 3-14 5-6 3-7-1-6-4-7-6-3-5 7-8 9-7 23-11 16-5z" fill="#020F30"/><path transform="translate(1580,157)" d="m0 0h28l13 3 13 7 13 11 10 13 8 16 4 18 2 16v64l-1 36-4 5-8 1h-14l-7-2-3-5-2-12-1-82-1-22-4-11-7-9-9-6-8-3-14-1-14 2-10 4-9 7-7 10-4 9-1 5v98l-1 9-4 5-11 3h-12l-7-2-4-5-2-10-1-20v-87l1-47 1-16 1-1h25l5 3 1 22 12-11 14-9 13-5z" fill="#020E30"/><path transform="translate(1765,155)" d="m0 0 16 1 18 4 13 6 15 9 9 7-2 4-8 9-10 14-4-1-10-7-8-4-13-4-14-1-16 2-10 6-3 6v7l4 5 19 10 27 9 26 8 12 7 10 10 4 8 3 11v18l-4 11-10 14-8 8-11 7-16 6-11 2h-26l-14-3-15-5-30-14-8-3 1-4 15-15 5-4 7-8 9 5 8 5 17 6 8 2 17 1 12-2 8-4 5-6 1-9-3-7-5-4-10-4-37-9-20-8-13-9-8-9-5-8-3-9-1-11 2-12 4-10 7-10 7-7 14-9 12-5 10-2z" fill="#020E30"/><path transform="translate(287,157)" d="m0 0h19l7 1 3 9 2 20 2 4 9-14 9-8 12-7 12-4 5-1h22l1 1v29l-2 6-18 1-12 3-10 6-10 9-10 14-5 13-2 11-2 42-1 32-1 14-4 5-7 3h-15l-7-6-3-14v-51l1-42v-75z" fill="#020F30"/><path transform="translate(1765,155)" d="m0 0 16 1 18 4 13 6 15 9 9 7-2 4-8 9-10 14-4-1-10-7-8-4-13-4-14-1-16 2-10 6-3 6v7l4 5 19 10 27 9 26 8 12 7 10 10 4 8 3 11v18l-4 11-10 14-8 8-11 7-4 1 1-3 10-6 1-2 5-3 6-7 6-11 4-11v-9l-4-19-3-7-11-8-10-5-16-6-18-5-14-4-14-6v-2l-5-2-6-4-4-4-1-8 4-8 7-7 9-4 4-1h12l13 2 17 5 13 9 4-1 10-13 3-4v-4l-14-9-19-9-11-3-8-1h-16l-17 3-12 5-11 7-7 7-1 3h-2v8l2 6v9l-2 9-3 6-1 8 5 8 10 10 21 10 15 4 23 5 13 1 7 4 5 6 1 4v15l-1 2h-2l-2 5-5 5-9 3-10 1h-15l-9-2-13 1-8 6-7 3-13 1-1 5 6 2 13 6 12 4 2 4-12-3-18-8-17-8-8-3 1-4 15-15 5-4 7-8 9 5 8 5 17 6 8 2 17 1 12-2 8-4 5-6 1-9-3-7-5-4-10-4-37-9-20-8-13-9-8-9-5-8-3-9-1-11 2-12 4-10 7-10 7-7 14-9 12-5 10-2z" fill="#070815"/><path transform="translate(1933,156)" d="m0 0h21l16 3 15 6 13 8 10 9 9 10 8 14 4 11 3 16 1 11v18l-2 5-1 1-135 1 4 11 6 8 13 10 12 6 8 2h25l14-3 13-5 8-6 2-5 4 5 7 8 15 15v2l-19 12-12 7-15 6-14 4h-23l-17-4-13-5-11-6-13-10-16-16-9-13-7-16-4-15v-21l3-16 6-16 8-14 8-10 5-5 7-6 14-8 14-6zm14 2-11 2-12 1-16 6-13 7-11 9-10 11-8 14-5 11-4 20-1 18 3 17 4 10h2l1 5 2 4h2l1 4 8 10 2 2h3v3h3v3h3l1 4 10 8 10 6 12 5 16 4 8 1h13l12-2 15-5 17-9 13-8 4-3-2-5-11-8-1-2h-3l-2-4-2-1-13 8-16 5-17 3h-15l-7-2-16-1-6-4-3 4-1-2-3 1-2-1-1-9-6-7h-2l1-4-4-9-2-5 1-7 5-2v-1h8l2 1v-3l10-1 7 2v2l16 1h78l10-1v-6l-1-5v-35l-4-15-10-14-7-8-14-10-16-8-6-2z" fill="#050612"/><path transform="translate(1380,155)" d="m0 0h19l17 4 14 6 14 10 14 14 7 10 7 14 4 14 2 12 1 27-2 1-43 1-91 1-3 1 2 7 9 12 7 7 11 7 11 4 8 2 15 1-3 2h-14l-14-2-12-6-4-5-5-3-7-7v-3l-4-2-5-9-1-9 8-5 2-1 17-2 11 3 11 2 19 1h45l14-1h14l-4-40-4-9-4-10-9-13-9-10-11-8-16-9-12-4-8-1h-16l-16 3-16 6-11 6-11 9-10 13-6 11-4 10-3 15-1 24 3 19 6 19 7 11 10 12 14 11 16 8 13 4 10 2 11 1 2 1 19-2 34-14 16-8-1-4-7-7-8-7-4-3v-2l-5 1-7 6-12 5h-10l1-2 15-5 11-6 3-3 1-5 3 3 7 8 8 8 10 8 4 3-1 3-29 14-20 8-17 4h-20l-15-3-17-6-14-8-10-8-11-11-7-10-6-10-4-11-3-16v-28l3-16 5-14 9-16 11-12 7-6 12-7 18-7z" fill="#040714"/><path transform="translate(458,193)" d="m0 0m32-35h9l16 5 10 5 13 10 12 12 8 11 5 11 4 15 1 7 1 26-2 5-48 2-35 1h-51l-1 2v-2h-3l-1-10-3-12v-7l5-14 5-13 8-10 10-7 5-1 1 2-10 6-7 7-6 10-4 16 83 1 9 1-3 2-44 2-15 4-1 2 2 4-2 2-2 8 4 2 31 1 19-1 52-1-1-13-3-24-2-10-5-12-9-13-11-11-13-9-14-6-17-4z" fill="#000720"/><path transform="translate(1160,124)" d="m0 0m-2 1 3 1-10 8-6 9-2 8v9l3 9 4 6 2 4 16 8 26 8 25 7 19 7 14 7 12 9 8 9 5 8 4 13 2 12v10l-3 16-8 16-8 11-10 10-14 8-24 8-13 2h-19l-18-3-21-6-18-8-13-7-14-11-7-7 1-5 8-10 11-11 6-5 5 2 11 10 17 10 20 8 12 3h26l-4 4h-17l-16-2-10-4-16-7-12-8-14-10-4 1-17 17-2 5 7 8 8 7 16 9 15 6 23 7 13 2h27l16-3 15-6 10-5 9-7 1-2h2l2-4 11-16 4-15 2-13-4-21-2-6-4-9-9-10-14-9-9-4-16-6-17-5-16-5-17-5-13-5-9-7-6-7v-2h-2l-3-10v-10l5-12 9-10z" fill="#090B18"/><path transform="translate(1380,155)" d="m0 0h19v1h-7v2l-21 3-14 4-17 8-13 11-10 14-5 9-4 10-3 15-1 24 3 19 6 19 7 11 10 12 14 11 16 8 13 4 10 2 11 1 2 1 19-2 34-14 16-8-1-4-7-7-8-7-4-3v-2l-5 1-7 6-12 5h-10l1-2 15-5 11-6 3-3 1-5 3 3 7 8 8 8 10 8 4 3-1 3-29 14-20 8-17 4h-20l-15-3-17-6-14-8-10-8-11-11-7-10-6-10-4-11-3-16v-28l3-16 5-14 9-16 11-12 7-6 12-7 18-7z" fill="#090B18"/><path transform="translate(126,87)" d="m0 0h18l18 3 17 5 16 8 11 7 10 8 12 12 12 17 8 16 4 11 3 15 1 8v28l-4 23-6 18-8 16-8 12-11 12-10 9-14 10-16 8-15 5-25 5-8 1h-22v-1l33-4 29-7 7-3 15-8 14-10 10-9 8-8 9-13 8-16 6-18 4-24v-17l-5-33-6-15-9-15-10-13-11-12-16-10-17-8-23-7-18-2v-2h-8z" fill="#070815"/><path transform="translate(1857,265)" d="m0 0 2 4 4 13v2h2l3 9h2l4 7 7 8 3 1v3h3v3h3l3 5 14 10 11 5 10 3 11 3 8 1h13l12-2 15-5 17-9 13-8 3-2-1-4-12-9v-2h-3l-4-4-13 8-16 5-17 3h-15l-7-2v-2l-6-1-11-7-9-7-3-2v-2l-3-1-6-9-1-4 2-1 3 3 7 10 13 10 12 6 8 2h25l14-3 13-5 8-6 2-5 4 5 7 8 15 15v2l-19 12-12 7-15 6-14 4h-23l-17-4-13-5-11-6-13-10-16-16-9-13-7-16-2-9z" fill="#050714"/><path transform="translate(464,157)" d="m0 0h17v1l-19 3-14 5-17 9-11 9-8 11-1 5v20h1v11l-1 2-5 3-5 6-3 12 3 20 6 15 8 14 9 11 12 12 14 8 14 5 5 2 17 2h15v2l-2 1-16 1-14-2-18-6-13-7-12-10-7-8-9-12-8-14-6-16-2-11v-21l3-20 5-15 7-13 7-9 4-5 15-10 15-7z" fill="#0A0B17"/><path transform="translate(1718,291)" d="m0 0 9 5 8 5 17 6 4 2-1 1 8 2v1l-16-1-8 2-6 5-7 3-13 1-1 5 6 2 13 6 12 4 2 4-12-3-18-8-17-8-8-3 1-4 15-15 5-4z" fill="#010720"/><path transform="translate(878,155)" d="m0 0h17v2l-17 1-12 5-11 7-3 1v2l-8 7-9 9-4-1-3-9-17-3-2-1h-9l-1 42-2-4v-53l1-2 7-1h25l3 2 1 4v20l8-7 10-9 14-8z" fill="#020922"/><path transform="translate(1580,157)" d="m0 0h28l13 3 13 7 13 11 10 13 8 16 4 18 2 16v64l-1 13-2-3-1-43v-18l-3-22-4-15-1-10-8-16-8-11-10-8-14-8-7-2-11-1h-19l-15 4-13 7-11 9-4 4h-2v2l-3 1 2-4 11-12 14-9 13-5z" fill="#060815"/><path transform="translate(1577,191)" d="m0 0h25l11 4 9 7 7 9 4 6 2 9 1 14 1 28 1 60v13l1 2-3 1-3-8-1-8-1-82-1-22-4-11-7-9-9-6-8-3-14-1-14 2-10 4-9 7-7 10-5 10h-1l1-10 8-11 8-7 12-6z" fill="#0A0C18"/><path transform="translate(1174,84)" d="m0 0h18v1l-18 2-20 7-18 8-11 7-7 7-8 14-6 21v19l5 15 6 12 6 8 11 8 22 9 16 5 25 6 19 6 6 2 10 6 8 7-1 2-5-3-10-7-21-7-31-8-27-9-16-8-8-6-7-8-7-14-4-13-1-5v-14l3-16 5-13 7-12 8-8 11-7 19-8 16-5z" fill="#060816"/><path transform="translate(1119,275)" d="m0 0 5 2 11 10 17 10 20 8 12 3h26l-4 4h-17l-16-2-10-4-16-7-12-8-14-10-4 1-17 17-2 5 7 8 8 7 16 9 15 6 23 7 13 2h27l16-3 5-1-2 4-16 4-7 1h-19l-18-3-21-6-18-8-13-7-14-11-7-7 1-5 8-10 11-11z" fill="#050714"/><path transform="translate(490,158)" d="m0 0h9l16 5 10 5 13 10 12 12 8 11 5 11 4 15 1 7 1 26-2 5-48 2-35 1h-48l-4-1v-2l62-1 19-1 52-1-1-13-3-24-2-10-5-12-9-13-11-11-13-9-14-6-17-4z" fill="#080A17"/><path transform="translate(1503,159)" d="m0 0h3v157l1 24 4 2 13 1 8-1v3l-5 1h-12l-7-2-4-5-2-10-1-20v-87l1-47z" fill="#0A1129"/><path transform="translate(367,157)" d="m0 0h22l1 1v29l-2 6-18 1-12 3-10 6-10 9-10 14-5 13-3 13-2-2v-9l3-10 5-9 10-13 9-9 14-7 26-4 2-1v-27h-17l-13 3-16 8-8 7-4 5-4 8h-5l6-11 8-9 14-9 14-5z" fill="#080A16"/><path transform="translate(1910,259)" d="m0 0 4 1 6 2v2h16v1l-42 1v2h8v1h-7l1 7-2 1 4 8 5 5v2l4 2 15 11 10 4v1h-16l-4-1-1-3-4 4-1-3h-2l-1 2-3-2-1-9-5-6-2-1-1-7-5-11 1-7 4-4h11l1 2v-3z" fill="#010821"/><path transform="translate(1368,192)" d="m0 0m-3 1h3l-1 3-9 5-7 6-7 10-4 10-1 7 7 1 53 1 22 1-2 2-21 3h-24l-9 1-10-1h-10l-8-3-2-2v-9l8-17 9-10 9-6z" fill="#020922"/><path transform="translate(1894,275)" d="m0 0 3 1 7 11 10 8 9 6 11 4 4 1h25l14-3 13-5 8-6 2-5 4 5 7 8-1 3h-3v-2h-3l-4-4-13 8-16 5-17 3h-15l-7-2v-2l-6-1-11-7-9-7-3-2v-2l-3-1-6-9-1-4z" fill="#090B18"/><path transform="translate(613,259)" d="m0 0h2l4 13 6 11 8 10 10 8 10 4 5 1h21l14-5 15-9 10-8 4-5 4-1v4l-3 2-3 5h-3l-1 3-8 7h-2l-1 3-20 7-15 2h-9l-10-1-11-4-9-7-8-10-7-12-4-11v-6z" fill="#040612"/><path transform="translate(1357,258)" d="m0 0 8 1 13 3 5 1 19 1v1l-62 1v3l1 6 9 13 8 8 11 7 11 4 8 2 15 1-3 2h-14l-14-2-12-6-4-5-5-3-7-7v-3l-4-2-5-9-1-9 8-5 2-1z" fill="#040615"/><path transform="translate(536,290)" d="m0 0h3l7 9 8 7 10 7-1 4-16 10-16 9-17 6-9 2 1-3 26-10 6-3 14-9 4-3-1-5-13-10-2-2-7 1-11 7-16 4-18 1-9-2v-1l21-1 16-4 14-7z" fill="#090B17"/><path transform="translate(1442,288)" d="m0 0 3 3 7 8 8 8 10 8 4 3-1 3-29 14-20 8-11 3h-17l1-2 18-2 34-14 16-8-1-4-7-7-8-7-4-3v-2l-5 1-7 6-12 5h-10l1-2 15-5 11-6 3-3z" fill="#060815"/><path transform="translate(1065,206)" d="m0 0h1v5l3 1 1 9v82l-2 31-2 8-5 5h-16l-7-3-2-4 5 2 8 2h9l5-1 2-28 1-25v-72l-1-4z" fill="#060D26"/><path transform="translate(216,232)" d="m0 0h1v13h-2l-1 6-8 16-4 6-9 10-10 7-21 10-12 5-14 3-6 1-18-1 1-2 3-1 26-3 17-5 20-9 12-9 7-8 6-10 6-14 4-13h2z" fill="#050714"/><path transform="translate(1718,291)" d="m0 0 9 5 8 5 8 3v2l-9-1-11-6-6-1-2 5-8 11-6 3h-2l-1 4 6 2 27 13 12 4 2 4-12-3-18-8-17-8-8-3 1-4 15-15 5-4z" fill="#050712"/><path transform="translate(762,159)" d="m0 0h4l1 51 2 66v31l-1 30h-1l-1-20-1-61-1-15z" fill="#080F28"/><path transform="translate(1635,240)" d="m0 0h1l1 28 1 60v13l1 2-3 1-3-8-1-8v-70l2-3z" fill="#020921"/><path transform="translate(458,193)" d="m0 0m-2 1 3 1-4 3-9 7-6 7-5 10-3 13 83 1 9 1-3 2h-87l-6-2 1-9 6-16 8-10 10-7z" fill="#030511"/><path transform="translate(661,157)" d="m0 0h27l12 3 9 5 4 3v2l-5-1-14-7-4-1h-26l-14 3-20 8-13 7-9 7-2 2v4l6 4 7 7-2 1-6-4-7-6-3-5 7-8 9-7 23-11 16-5z" fill="#060815"/><path transform="translate(1174,84)" d="m0 0h18v1l-18 2-20 7-18 8-11 7-7 7-8 14-6 21-3 1 1-9 4-14 7-13 9-10 12-8 19-8 16-5z" fill="#020410"/><path transform="translate(588,288)" d="m0 0h2l2 7 6 13v2h2l8 11 9 8 11 7 10 5 13 3h16l12-3h4l-1 3-12 3-8 1h-11l-16-4-12-6-13-10-7-7-10-14-5-11z" fill="#080A18"/><path transform="translate(957,276)" d="m0 0 2 3 2 33v25l-3 6-4 2h-15l-15-2-3-3 7 1h25l2-1v-37z" fill="#060D26"/><path transform="translate(1160,124)" d="m0 0m-2 1 3 1-10 8-6 9-2 8v9l3 9 4 6 2 4 16 8 26 8 2 3-8-1-17-5-13-5-9-7-6-7v-2h-2l-3-10v-10l5-12 9-10z" fill="#050714"/><path transform="translate(153,125)" d="m0 0 10 2 16 8 11 7 11 10 7 10 5 11 5 21 1 7v8l-3 1-2-12-5-22-5-13-10-13-14-11-16-8-11-4z" fill="#090B18"/><path transform="translate(1894,235)" d="m0 0h26l48 1 3 2-13 2h-13l-14 1v-2l-2 2h-11l-2 1h-10l-10-2-3-4z" fill="#0F162E"/><path transform="translate(409,199)" d="m0 0 2 1v20h1v11l-1 2-5 3-5 6-2 7h-1v-12l2-15 5-15z" fill="#000720"/><path transform="translate(1541,222)" d="m0 0h1l1 9-1 58-2-2-1 30h-1l-1-24v-53z" fill="#050C25"/><path transform="translate(990,191)" d="m0 0h9l16 4 11 8 6 10 1 2v6l-1-2h-2l-4-10-7-7-11-5-4-1h-21l-8 4-6 7-5 12-2 8h-3l1-9 4-9 6-9 6-5 7-3z" fill="#090B17"/><path transform="translate(282,171)" d="m0 0h1v11l3-1 1 24v19l-1 40-1 2h-2l-1-2z" fill="#0C132C"/><path transform="translate(1447,264)" d="m0 0m-107 1h107l-4 2-9 1-95 1v-3z" fill="#020412"/><path transform="translate(840,228)" d="m0 0 3 1-2 17-1 67-1 24-2 6h-3v-2h2l1-6v-74l1-23z" fill="#0C132C"/><path transform="translate(74,172)" d="m0 0h1v57l-1 53h-1l-1-27-1-2v-49l1-31z" fill="#0F162F"/><path transform="translate(917,220)" d="m0 0 2 2 1 117 2 1h-3l-2-5-1-13v-100z" fill="#111830"/><path transform="translate(46,84)" d="m0 0 67 1 19 1-3 2 8 1v1h-16l-38-1-40-2z" fill="#0F162D"/><path transform="translate(724,278)" d="m0 0h2v4l-3 2-3 5h-3l-1 3-8 7h-2l-1 3-20 7-15 2h-6v-2l-4-2 19-1 14-5 15-9 10-8 4-5z" fill="#070917"/><path transform="translate(1710,186)" d="m0 0 1 3 1 8 1 2v9l-2 9-3 6-2 6-2-2-2-8v-12l3-12z" fill="#000720"/><path transform="translate(489,264)" d="m0 0h37v2l-7 1-35 1h-48l-4-1v-2z" fill="#060814"/><path transform="translate(1033,217)" d="m0 0 2 4 1 19v49h-1l-1 23h-1l-2-93z" fill="#0E152D"/><path transform="translate(2020,208)" d="m0 0 2 2 5 19 2 12 1 18-2 6h-14v-1h10l-2-11v-35z" fill="#000720"/><path transform="translate(1357,258)" d="m0 0 8 1 13 3 5 1 19 1v1l-62 1v3l-2 3-1 2-1 3-2-6v-5l8-5 2-1z" fill="#000720"/><path transform="translate(1160,225)" d="m0 0 18 4 21 5 21 7 10 6 8 7-1 2-5-3-10-7-21-7-31-8-10-4z" fill="#040613"/><path transform="translate(1503,159)" d="m0 0h3v45l-1 22-2 1-1-4v-48z" fill="#060917"/><path transform="translate(359,193)" d="m0 0m-3 1 5 1-3 2-10 6-10 9-10 14-5 13-3 13-2-2v-9l3-10 5-9 10-13 9-9z" fill="#090A16"/><path transform="translate(74,306)" d="m0 0h39v1l16 1-4 2-16 1h-35l-2-4z" fill="#091028"/><path transform="translate(433,271)" d="m0 0 3 4 7 11 6 7 11 8 10 4 8 3-3 3-13-4-11-7-5-5-10-11-2-1-2-5-2-6z" fill="#070916"/><path transform="translate(1217,86)" d="m0 0 8 1 17 6 17 9 11 8 4 4-1 3v-2l-4-1-8-6-16-9-13-5-10-4-5-1z" fill="#070916"/><path transform="translate(1017,159)" d="m0 0 9 1 14 7 12 11 7 8 6 12-1 4-1-4h-2l-9-14-9-10-15-9-13-4z" fill="#060814"/><path transform="translate(41,88)" d="m0 0h1l-1 34-1 8-2 1-1 20h-1v-44l2-15 1-3z" fill="#030B24"/><path transform="translate(287,157)" d="m0 0h19l7 1 2 4v9l-3-1-1-10-25 1v20l-3 1-1-11v-13z" fill="#0C0F1E"/><path transform="translate(878,155)" d="m0 0h17v2l-17 1-12 5-11 7-3 1v2l-8 7-5 5-3-1 3-5 9-9 14-9 12-5z" fill="#040613"/><path transform="translate(317,249)" d="m0 0 3 3v18l-2 54h-1l-1-13h-1v-18z" fill="#0F162E"/><path transform="translate(872,190)" d="m0 0h9l14 4 11 6 5 4 6 9 1 7-2 2-5-12-4-5-9-6-11-4-4-1h-11l-9 3 2-4z" fill="#040716"/><path transform="translate(987,157)" d="m0 0h19v1l-17 2-16 6-16 10-9 7-3-1 4-5 16-11 14-7z" fill="#0C0D19"/><path transform="translate(692,194)" d="m0 0 10 3 11 8 9 10 6 12v5l-3-1-6-12-9-10-9-8-9-5z" fill="#0D0E19"/><path transform="translate(1930,190)" d="m0 0m-4 1h4v2l-14 6-10 9-7 11-5 14-3 1 1-10 8-15 10-10 11-6z" fill="#030512"/><path transform="translate(1540,286)" d="m0 0 2 3 1 10v30l-2 8h-1l-1-16v-34z" fill="#24252D"/><path transform="translate(1034,284)" d="m0 0h1v5h2v47h-2l-2-3v-21z" fill="#010415"/><path transform="translate(1241,270)" d="m0 0h3 1v12l-4 8h-2l-2 4-7 8-9 6-4-1 5-4 8-6 7-10 3-9z" fill="#010311"/><path transform="translate(765,255)" d="m0 0h2l2 21v31l-1 30h-1l-1-20z" fill="#1D1F2C"/><path transform="translate(1368,192)" d="m0 0m-3 1h3l-1 3-9 5-7 6-7 10-4 10-2 7h-3l1-9 9-17 8-8 10-6z" fill="#070915"/><path transform="translate(492,191)" d="m0 0 7 1 12 5 8 6 9 14 3 10 1 9-2 1-5-17-6-11-6-7-12-6-9-3z" fill="#090B18"/><path transform="translate(1954,189)" d="m0 0 10 3 10 5 9 7 6 8 4 8v3h-2l-1 3-4-11-6-9-8-6-10-5-6-2-7-1v-1l5-1z" fill="#10162E"/><path transform="translate(38,264)" d="m0 0h1l2 39 1 26-3 3h-1z" fill="#00061E"/><path transform="translate(905,156)" d="m0 0 10 2 12 5 8 6 9 9-1 4-12-12-16-8-11-3z" fill="#0B0D1A"/><path transform="translate(1065,206)" d="m0 0h1v5l3 1 1 9v28l-1 4h-2l-1-35-1-4z" fill="#030920"/><path transform="translate(766,317)" d="m0 0h1v27l-3 2h-31l-3-3v-3l6 3 28 1 1-26z" fill="#00000B"/><path transform="translate(798,159)" d="m0 0h2v22l-1 36-2-4v-53z" fill="#090D1C"/><path transform="translate(718,311)" d="m0 0h2l1 4-11 13-5 5-8 5-10 4h-2l1-3 14-7 10-8 6-9z" fill="#080916"/><path transform="translate(74,127)" d="m0 0h1v45l-3 1v-33l1-12z" fill="#000720"/><path transform="translate(1749,343)" d="m0 0 38 1-1 2-3 1h-26l-7-1z" fill="#070814"/><path transform="translate(958,226)" d="m0 0 3 1-2 34-1 11h-1l-1-17v-13z" fill="#070E26"/><path transform="translate(861,195)" d="m0 0m-1 1m-1 1m-1 1 2 2-7 8-6 12-4 9-2 1 2-12 7-12 5-6z" fill="#070916"/><path transform="translate(958,337)" d="m0 0h1v5l-5 3h-15l-15-2-3-3 7 1h25z" fill="#070917"/><path transform="translate(538,328)" d="m0 0m-1 1m-3 1h3v3l-19 8-13 3 1-3 26-10z" fill="#050612"/><path transform="translate(669,189)" d="m0 0 10 1 11 3v2l-8-1h-33l1-2z" fill="#030717"/><path transform="translate(41,332)" d="m0 0 2 4 3 2v2l7 2 33 2v1h-33l-9-3-4-5z" fill="#00051A"/><path transform="translate(1174,119)" d="m0 0h27l3 1v2h-23l-12 2-7 1 3-3z" fill="#0B0D18"/><path transform="translate(1263,129)" d="m0 0 1 3-9 11-2 3-4-1-12-8 1-3 14 7z" fill="#080916"/><path transform="translate(683,340)" d="m0 0m-4 1h4l-1 3-12 3-8 1h-11l-3-1v-2l19-1z" fill="#10121F"/><path transform="translate(1910,259)" d="m0 0 4 1 6 2v2h16v1h-34l1-4z" fill="#000720"/><path transform="translate(218,209)" d="m0 0 2 4-1 20-1 8h-1l-1-7h-2l2-24z" fill="#080F28"/><path transform="translate(809,158)" d="m0 0h23l1 1v21l-2-2-1-16-19-2z" fill="#000009"/><path transform="translate(1413,194)" d="m0 0 8 4 8 9 2 5h2l4 11-1 3-3-5-7-13-5-6-8-6z" fill="#080A18"/><path transform="translate(314,338)" d="m0 0 1 3-6 4-3 1h-15l-6-5v-2l6 3h14l6-2z" fill="#050715"/><path transform="translate(898,196)" d="m0 0 8 4 5 4 6 9 1 7-2 2-5-12-4-5-9-6-2-2z" fill="#0B0D1B"/><path transform="translate(560,262)" d="m0 0m-47 1h47v1l-17 2h-17v-2h-13z" fill="#080C1C"/><path transform="translate(1783,269)" d="m0 0h11l7 4 5 6 1 9-2-3-5-8-8-4-9-3z" fill="#000720"/><path transform="translate(1797,195)" d="m0 0 5 2 10 7 4-1 6-5-1 4-5 7-4-1-10-7-6-3z" fill="#0C0E1A"/><path transform="translate(1954,189)" d="m0 0 10 3 10 5 5 4v2l-4-1-8-5-11-4-7-1v-1l5-1z" fill="#10121F"/><path transform="translate(1667,342)" d="m0 0v3l-1 1-8 1h-14l-4-1v-2l8-1h17z" fill="#1A1F33"/><path transform="translate(689,158)" d="m0 0 8 1 12 6 4 3v2l-5-1-14-7-4-1z" fill="#0D0F1A"/><path transform="translate(1206,308)" d="m0 0 4 1-4 3h-17l-7-2v-1z" fill="#000313"/><path transform="translate(1900,212)" d="m0 0 1 3-5 12-3 7h-2l1-10 5-9z" fill="#030718"/><path transform="translate(1036,340)" d="m0 0 5 2 8 2h9l6-1-1 3-2 1h-16l-7-3z" fill="#070A1A"/><path transform="translate(645,193)" d="m0 0m-4 1h4l-1 3-14 5-4 2h-5l3-3 8-4z" fill="#070814"/><path transform="translate(840,228)" d="m0 0 3 1-3 26-2-1v-16z" fill="#0F162E"/><path transform="translate(1065,206)" d="m0 0h1v5l3 1v24h-1l-2-8v-10l-1-4z" fill="#030613"/><path transform="translate(679,306)" d="m0 0 4 1 2 2-15 2h-6v-2l-4-2z" fill="#000720"/><path transform="translate(310,158)" d="m0 0 4 1 1 3v9l-3-1-1-10h-25v-1z" fill="#030718"/><path transform="translate(611,231)" d="m0 0h2v11l2 17-3 1-1-2-1-18z" fill="#101832"/><path transform="translate(41,88)" d="m0 0h1l-1 17-1 2h-3v-9l2-9z" fill="#040510"/><path transform="translate(282,158)" d="m0 0h1l1 7 2-1v17l-3 1-1-11z" fill="#00061D"/><path transform="translate(878,155)" d="m0 0h17v2l-17 1-9 4-3-1 5-4z" fill="#000416"/><path transform="translate(1379,189)" d="m0 0h20l4 1v2h-21l-8 1v-2z" fill="#000313"/><path transform="translate(500,308)" d="m0 0h5l-2 3-15 1-9-2v-1z" fill="#040613"/><path transform="translate(727,262)" d="m0 0 3 2-1 11-2 5-1-2-3 1z" fill="#0D142C"/><path transform="translate(474,189)" d="m0 0h12l3 1v2h-23l2-2z" fill="#161925"/><path transform="translate(1180,83)" d="m0 0h26l3 1v2l3 1-20-2-12-1z" fill="#040A20"/><path transform="translate(1102,151)" d="m0 0h1v21l-3-4v-14z" fill="#090B18"/><path transform="translate(667,157)" d="m0 0h21l2 3-24-1z" fill="#05050F"/><path transform="translate(1529,342)" d="m0 0h3v3l-5 1h-12l-5-1 3-2h11z" fill="#1A213A"/><path transform="translate(2011,301)" d="m0 0 7 6 4 4-1 4-5-5-8-6z" fill="#000720"/><path transform="translate(372,191)" d="m0 0 16 1v1l-18 1-11 1 1-2z" fill="#000519"/><path transform="translate(603,191)" d="m0 0 5 2 9 8 2 2-2 1-6-4-7-6z" fill="#0B0D1A"/><path transform="translate(1272,115)" d="m0 0h3l-1 5-8 9-2-1 2-4 5-6z" fill="#050C25"/><path transform="translate(1407,308)" d="m0 0 10 1v1l-15 2v-1l-14-1v-1z" fill="#060D26"/><path transform="translate(73,155)" d="m0 0 2 4v13l-3 1v-13z" fill="#00051A"/><path transform="translate(1991,223)" d="m0 0h2l3 9-1 5-2 1-1-2z" fill="#000009"/><path transform="translate(126,87)" d="m0 0h18l2 3h-9l-11-2z" fill="#060712"/><path transform="translate(1235,255)" d="m0 0 4 2 4 9 1 5-2 1-3-7-4-8z" fill="#12131F"/><path transform="translate(1779,190)" d="m0 0 10 2 9 4-4 1-15-5z" fill="#00020F"/><path transform="translate(995,156)" d="m0 0h12l13 2-3 2-11-1v-2h-11z" fill="#191C2B"/><path transform="translate(1382,309)" d="m0 0 21 1-3 2h-14l-4-2z" fill="#000009"/><path transform="translate(41,332)" d="m0 0 2 4 3 2v2l5 2v2l-7-2-4-5z" fill="#06091A"/><path transform="translate(1636,319)" d="m0 0h2v22l1 2-3 1-1-4z" fill="#00061F"/><path transform="translate(1539,327)" d="m0 0h1l1 8 1 3-4 5-6 1v-2l6-3z" fill="#060A1B"/><path transform="translate(1818,329)" d="m0 0 2 1-2 1zm-1 2 1 3-10 6h-2l1-3z" fill="#000210"/><path transform="translate(708,169)" d="m0 0h6l7 7-1 2-11-7z" fill="#000823"/><path transform="translate(869,191)" d="m0 0h11v1l-14 4-3 1 2-4z" fill="#070813"/><path transform="translate(464,157)" d="m0 0h17v1l-14 2h-5z" fill="#00010C"/><path transform="translate(884,154)" d="m0 0h12l9 2 1 2-11-1v-2h-11z" fill="#161A2B"/><path transform="translate(1829,320)" d="m0 0 1 3-9 9-3 1 2-4z" fill="#070A18"/><path transform="translate(718,311)" d="m0 0h2l1 4-6 7-2-2z" fill="#00061E"/><path transform="translate(1930,190)" d="m0 0m-4 1h4v2l-13 5 2-4z" fill="#00010E"/><path transform="translate(762,159)" d="m0 0h4v9l-2 3-1-1z" fill="#000009"/><path transform="translate(472,156)" d="m0 0h11l10 1-3 2h-9v-2h-9z" fill="#282B3A"/><path transform="translate(1174,119)" d="m0 0 3 1h-2v2l-9 3-4-1 9-4z" fill="#000210"/><path transform="translate(683,340)" d="m0 0m-4 1h4l-1 3-10 2 1-3z" fill="#080A16"/><path transform="translate(987,157)" d="m0 0h19v1l-20 2z" fill="#00010C"/><path transform="translate(874,156)" d="m0 0h7l-3 2-9 4-3-1 5-4z" fill="#00010D"/><path transform="translate(1800,339)" d="m0 0h4l-1 3-6 2h-6l2-2z" fill="#000311"/><path transform="translate(665,190)" d="m0 0m-7 1h7l-6 3h-10l1-2z" fill="#080914"/><path transform="translate(823,343)" d="m0 0m-3 0 3 1v2h-13v-2z" fill="#000720"/><path transform="translate(1431,214)" d="m0 0h2l4 9-1 3-3-5-2-4z" fill="#000211"/><path transform="translate(730,158)" d="m0 0h5l-2 7-3 1z" fill="#000720"/><path transform="translate(388,187)" d="m0 0h1v5h-11l2-2 7-2z" fill="#090913"/><path transform="translate(640,343)" d="m0 0 11 1-3 1v2l-7-1z" fill="#000314"/><path transform="translate(528,224)" d="m0 0h2l2 12-2 1-2-7z" fill="#00010C"/></svg>